<svg width="577" height="592" viewBox="0 0 577 592" fill="none" xmlns="http://www.w3.org/2000/svg">
<path fill-rule="evenodd" clip-rule="evenodd" d="M70 0C31.3401 0 0 31.3401 0 70V81V392V403C0 441.66 31.3401 473 70 473H81H338H339H349C387.66 473 419 441.66 419 403V267H338V392H81V81H405C443.66 81 475 49.6599 475 11V0H81H70Z" fill="url(#paint0_linear_37_22)"/>
<path fill-rule="evenodd" clip-rule="evenodd" d="M194.135 188.985C194.135 150.325 225.475 118.985 264.135 118.985H275.135H572.135V199.985H275.135V510.985H576.135V591.985H275.135H264.135C225.475 591.985 194.135 560.645 194.135 521.985V510.985V199.985V188.985Z" fill="url(#paint1_linear_37_22)"/>
<defs>
<linearGradient id="paint0_linear_37_22" x1="0" y1="0" x2="475" y2="473" gradientUnits="userSpaceOnUse">
<stop stop-color="#D9D9D9"/>
<stop offset="1" stop-color="#595959"/>
</linearGradient>
<linearGradient id="paint1_linear_37_22" x1="194.135" y1="118.985" x2="669.135" y2="591.985" gradientUnits="userSpaceOnUse">
<stop stop-color="#FFAA5C"/>
<stop offset="1" stop-color="#E03939"/>
</linearGradient>
</defs>
</svg>
